<svg xmlns="http://www.w3.org/2000/svg" viewBox="0 0 239.31 223.35"><defs><style>.cls-1,.cls-6{fill:#af9cda;}.cls-2,.cls-8{fill:#243762;}.cls-3{fill:#fff;}.cls-4,.cls-9{fill:#ecf1f7;}.cls-5{fill:#c5d9ff;}.cls-6{opacity:0.33;}.cls-7{fill:#f7a9b4;}.cls-8{opacity:0.29;}.cls-9{opacity:0.35;}</style></defs><title>Recurso 1a</title><g id="Capa_2" data-name="Capa 2"><g id="OBJECTS"><circle class="cls-1" cx="91.56" cy="52.65" r="52.33"/><path class="cls-2" d="M127.89,90.33a.52.52,0,0,1-.35-.14.5.5,0,0,1,0-.71,51.83,51.83,0,0,0-73.3-73.3.5.5,0,0,1-.71,0,.51.51,0,0,1,0-.71,52.84,52.84,0,0,1,74.72,74.72A.54.54,0,0,1,127.89,90.33Z"/><circle class="cls-3" cx="91.56" cy="52.65" r="39.82"/><path class="cls-2" d="M91.56,93a40.32,40.32,0,1,1,0-80.64.5.5,0,0,1,.5.5.51.51,0,0,1-.5.5,39.32,39.32,0,1,0,0,78.64.5.5,0,0,1,0,1Z"/><path class="cls-2" d="M101.87,60.26H91a4,4,0,0,1-4-4v-15a3.5,3.5,0,1,1,7,0v12h7.86a3.5,3.5,0,0,1,0,7Z"/><path class="cls-2" d="M10.31,70.82,66.68,127.2a28.25,28.25,0,0,0,39.93,0l6.74-6.74a6.51,6.51,0,0,0,0-9.22l-23-23a6.5,6.5,0,0,0-9.21,0L69.63,99.74a2.29,2.29,0,0,1-3.25,0l-27.9-27.9a2.26,2.26,0,0,1,0-3.21L49.82,57.29a6.51,6.51,0,0,0,0-9.22L26.2,24.45a6.52,6.52,0,0,0-9.14-.08l-6.4,6.18A28.24,28.24,0,0,0,10.31,70.82Z"/><path class="cls-4" d="M12.08,31.68,43.75,63.36l1.09-1.09,5-5a6.51,6.51,0,0,0,0-9.22L26.2,24.45a6.52,6.52,0,0,0-9.14-.08l-6.4,6.18Z"/><path class="cls-2" d="M43.75,64.07l-32-32L9.91,30.58,16.72,24a7,7,0,0,1,9.83.08L50.18,47.72a7,7,0,0,1,0,9.92ZM11.42,30.51l1,.82L43.75,62.65l5.72-5.72a6,6,0,0,0,0-8.5L25.84,24.8a6,6,0,0,0-8.43-.07Z"/><path class="cls-4" d="M76.51,95l31.68,31.68,1.08-1.09,5-5a6.53,6.53,0,0,0,0-9.22L90.63,87.8a6.5,6.5,0,0,0-9.13-.08L75.1,93.9Z"/><path class="cls-2" d="M108.19,127.42l-32-32-1.84-1.48,6.81-6.57a7.06,7.06,0,0,1,9.84.08l23.62,23.63a7,7,0,0,1,0,9.92ZM75.85,93.86l1,.82L108.19,126l5.72-5.72a6,6,0,0,0,0-8.5L90.28,88.15a6,6,0,0,0-8.43-.07Z"/><line class="cls-4" x1="14.5" y1="27.95" x2="33.8" y2="47.25"/><path class="cls-2" d="M33.8,47.75a.49.49,0,0,1-.35-.15L14.15,28.3a.5.5,0,0,1,0-.71.51.51,0,0,1,.71,0l19.3,19.3a.51.51,0,0,1,0,.71A.51.51,0,0,1,33.8,47.75Z"/><line class="cls-4" x1="91.27" y1="104.72" x2="110.57" y2="124.02"/><path class="cls-2" d="M110.57,124.52a.5.5,0,0,1-.35-.15l-19.3-19.3a.48.48,0,0,1,0-.7.5.5,0,0,1,.71,0l19.3,19.3a.5.5,0,0,1,0,.7A.51.51,0,0,1,110.57,124.52Z"/><path class="cls-2" d="M195.27,223.18l-73.9-10.93a15.3,15.3,0,0,1-12.89-17.37L135,15.7A15.3,15.3,0,0,1,152.35,2.81l73.9,10.93a15.3,15.3,0,0,1,12.89,17.37l-26.5,179.18A15.29,15.29,0,0,1,195.27,223.18Z"/><rect class="cls-4" x="88.59" y="64.55" width="171.05" height="92.75" transform="translate(38.91 266.94) rotate(-81.59)"/><rect class="cls-1" x="179.27" y="-13.7" width="12.84" height="92.75" transform="translate(126.2 211.58) rotate(-81.59)"/><path class="cls-4" d="M160.05,212a6.62,6.62,0,0,1-.88-.06,5.94,5.94,0,0,1-3.93-2.35,6,6,0,0,1,1.24-8.38,6,6,0,0,1,9.49,5.68A6,6,0,0,1,160.05,212Zm0-11a5,5,0,1,0,4.94,5.72,5,5,0,0,0-4.2-5.67A6.27,6.27,0,0,0,160,201.05Z"/><path class="cls-4" d="M173.31,17.92l-.28,0a1.92,1.92,0,0,1-.87-3.45,1.93,1.93,0,0,1,3.05,1.83h0A1.92,1.92,0,0,1,173.31,17.92Zm0-2.85a.91.91,0,0,0-.55.18,1,1,0,0,0-.37.61,1,1,0,0,0,.17.69,1,1,0,0,0,.61.36.92.92,0,0,0,1.05-.78h0a.9.9,0,0,0-.17-.69,1,1,0,0,0-.61-.36Z"/><path class="cls-4" d="M203.11,22.33l-.28,0-23.41-3.46a1.93,1.93,0,0,1-.87-3.46A1.92,1.92,0,0,1,180,15l23.41,3.46A1.93,1.93,0,0,1,205,20.68a1.93,1.93,0,0,1-1.9,1.65ZM179.7,16a.91.91,0,0,0-.74,1.47.91.91,0,0,0,.6.37L203,21.32a.93.93,0,0,0,1.05-.78.92.92,0,0,0-.78-1.05L179.83,16Z"/><path class="cls-5" d="M207.85,150.54l-64-9.46a1.89,1.89,0,0,0-2.16,1.61l-2.46,16.6a1.92,1.92,0,0,0,1.61,2.17l54.72,8.09,5.63,7.77,1-6.79,2.64.39a1.91,1.91,0,0,0,2.17-1.61l2.45-16.6A1.91,1.91,0,0,0,207.85,150.54Z"/><path class="cls-2" d="M195.56,170.05h-.08L140.77,162a2.39,2.39,0,0,1-1.59-.95,2.36,2.36,0,0,1-.44-1.78l2.45-16.61a2.41,2.41,0,0,1,2.74-2l14.79,2.19a.5.5,0,1,1-.15,1l-14.79-2.19a1.41,1.41,0,0,0-1.6,1.19l-2.46,16.6a1.41,1.41,0,0,0,.27,1,1.37,1.37,0,0,0,.92.55l54.72,8.09a.51.51,0,0,1,.42.57A.5.5,0,0,1,195.56,170.05Z"/><path class="cls-5" d="M218,81.74l-64-9.46a1.91,1.91,0,0,0-2.17,1.6l-2.45,16.61a1.89,1.89,0,0,0,1.6,2.16l54.72,8.1,5.64,7.77,1-6.79,2.64.39a1.89,1.89,0,0,0,2.16-1.61l2.46-16.6A1.92,1.92,0,0,0,218,81.74Z"/><path class="cls-2" d="M211.69,109.81l-6.24-8.6-54.51-8.06a2.41,2.41,0,0,1-2-2.73.51.51,0,0,1,.57-.43.51.51,0,0,1,.42.57,1.4,1.4,0,0,0,1.19,1.6L206,100.28l5.05,7,.89-6.08,3.14.47a1.43,1.43,0,0,0,1.6-1.19l1.63-11a.51.51,0,0,1,.57-.42.51.51,0,0,1,.42.57l-1.63,11a2.42,2.42,0,0,1-2.74,2l-2.14-.32Z"/><path class="cls-1" d="M137,103.14l64,9.46a1.92,1.92,0,0,1,1.61,2.17l-2.46,16.6A1.89,1.89,0,0,1,198,133l-54.72-8.09-7.65,5.81,1-6.79-2.65-.39a1.91,1.91,0,0,1-1.6-2.17l2.45-16.61A1.91,1.91,0,0,1,137,103.14Z"/><path class="cls-2" d="M198.29,133.5l-.36,0-34.15-5.06a.5.5,0,1,1,.14-1l34.16,5.05a1.43,1.43,0,0,0,1.6-1.19l2.45-16.6a1.4,1.4,0,0,0-1.18-1.6.5.5,0,0,1,.14-1,2.4,2.4,0,0,1,2,2.73l-2.45,16.61a2.43,2.43,0,0,1-.95,1.58A2.4,2.4,0,0,1,198.29,133.5Z"/><rect class="cls-3" x="154.88" y="141.37" width="15.74" height="92.75" transform="translate(-46.79 321.28) rotate(-81.59)"/><path class="cls-5" d="M131.57,183a5.58,5.58,0,1,1-4.7-6.34A5.59,5.59,0,0,1,131.57,183Z"/><path class="cls-6" d="M199.24,198.12a4.62,4.62,0,0,1-.74-.06l-59.45-8.79a4.91,4.91,0,0,1-3.27-2,5,5,0,0,1,4.72-7.88L200,188.22a5,5,0,0,1-.72,9.9Zm-.59-1a4,4,0,0,0,3.78-6.31,4,4,0,0,0-2.62-1.56l-59.46-8.8a4,4,0,0,0-4.51,3.36,4,4,0,0,0,3.35,4.51Z"/><path class="cls-3" d="M146.46,28.66a1.32,1.32,0,0,1-.28,0A2,2,0,1,1,148.4,27h0A2,2,0,0,1,146.46,28.66Zm0-2.91a.93.93,0,0,0-.57.19,1,1,0,0,0-.38.63,1,1,0,0,0,.18.71,1,1,0,0,0,1.72-.43h0a1,1,0,0,0-.81-1.09Z"/><path class="cls-3" d="M151.88,29.46a1.37,1.37,0,0,1-.29,0,2,2,0,1,1,.57-3.87,2,2,0,0,1,1.29.77,1.93,1.93,0,0,1,.36,1.45,1.94,1.94,0,0,1-1.93,1.67Zm0-2.91a1,1,0,0,0-.14,1.9.93.93,0,0,0,.71-.17,1,1,0,0,0,.38-.63h0a1,1,0,0,0-.81-1.09Z"/><path class="cls-3" d="M157.18,30.25l-.28,0a2,2,0,1,1,.28,0Zm0-2.92a1,1,0,0,0-.57.19,1,1,0,0,0-.37.63.94.94,0,0,0,.17.71,1,1,0,0,0,1.72-.43,1,1,0,0,0-.81-1.09Z"/><path class="cls-2" d="M231.87,46.49h-.07L146.87,33.92a.5.5,0,0,1,.14-1l84.93,12.56a.5.5,0,0,1,.42.57A.5.5,0,0,1,231.87,46.49Z"/><path class="cls-3" d="M196.46,154.37h-.07l-45.31-6.7a.49.49,0,0,1-.42-.57.5.5,0,0,1,.56-.42l45.32,6.71a.5.5,0,0,1,.42.56A.51.51,0,0,1,196.46,154.37Z"/><path class="cls-3" d="M169.64,155.92h-.08l-19.28-2.85a.5.5,0,0,1,.14-1l19.29,2.85a.5.5,0,0,1,.42.57A.49.49,0,0,1,169.64,155.92Z"/><path class="cls-3" d="M163.14,160.13h-.08l-13.53-2a.5.5,0,0,1,.15-1l13.53,2a.5.5,0,0,1,.42.57A.49.49,0,0,1,163.14,160.13Z"/><path class="cls-3" d="M195.66,159.77h-.07l-19.93-3a.5.5,0,0,1,.15-1l19.93,2.95a.5.5,0,0,1-.08,1Z"/><path class="cls-3" d="M190.93,116.77h-.07l-45.32-6.7a.51.51,0,0,1-.42-.57.49.49,0,0,1,.57-.42l45.31,6.7a.5.5,0,0,1-.07,1Z"/><path class="cls-3" d="M164.1,118.32H164l-19.29-2.86a.5.5,0,0,1-.42-.56.51.51,0,0,1,.57-.43l19.29,2.86a.5.5,0,0,1,.42.56A.51.51,0,0,1,164.1,118.32Z"/><path class="cls-3" d="M184.14,126.46h-.07L145,120.38a.5.5,0,0,1-.42-.57.49.49,0,0,1,.57-.41l39.11,6.06a.5.5,0,0,1-.08,1Z"/><path class="cls-3" d="M190.13,122.17h-.07l-19.93-3a.5.5,0,1,1,.14-1l19.93,3a.5.5,0,0,1,.43.57A.51.51,0,0,1,190.13,122.17Z"/><path class="cls-1" d="M145.24,40.72l64,9.46a1.92,1.92,0,0,1,1.61,2.17L208.39,69a1.89,1.89,0,0,1-2.16,1.61l-54.72-8.09-7.65,5.81,1-6.79-2.65-.39a1.91,1.91,0,0,1-1.6-2.17l2.45-16.6A1.91,1.91,0,0,1,145.24,40.72Z"/><path class="cls-2" d="M208.39,69.45h-.07a.51.51,0,0,1-.42-.57l2.45-16.6a1.4,1.4,0,0,0-1.18-1.6L169.43,44.8a.5.5,0,0,1-.42-.57.51.51,0,0,1,.57-.42l39.73,5.88a2.35,2.35,0,0,1,1.58,1,2.32,2.32,0,0,1,.45,1.78L208.89,69A.5.5,0,0,1,208.39,69.45Z"/><path class="cls-3" d="M199.15,54.35h-.07l-45.32-6.7a.51.51,0,0,1-.42-.57.5.5,0,0,1,.57-.42l45.31,6.7a.5.5,0,0,1-.07,1Z"/><path class="cls-3" d="M172.32,55.9h-.07L153,53a.5.5,0,0,1-.42-.56.51.51,0,0,1,.57-.43l19.29,2.86a.5.5,0,0,1,.42.57A.51.51,0,0,1,172.32,55.9Z"/><path class="cls-3" d="M192.36,64h-.07L153.18,58a.5.5,0,1,1,.15-1L192.44,63a.51.51,0,0,1,.42.57A.51.51,0,0,1,192.36,64Z"/><path class="cls-3" d="M198.35,59.75h-.07l-19.93-3a.51.51,0,0,1-.43-.57.5.5,0,0,1,.57-.42l19.93,2.95a.5.5,0,0,1,.43.56A.51.51,0,0,1,198.35,59.75Z"/><path class="cls-3" d="M206.68,86.2h-.07l-45.32-6.7a.51.51,0,0,1-.42-.57.5.5,0,0,1,.57-.42l45.31,6.7a.5.5,0,0,1-.07,1Z"/><path class="cls-3" d="M179.85,87.76h-.07L160.49,84.9a.5.5,0,0,1-.42-.57.51.51,0,0,1,.57-.42l19.29,2.86a.5.5,0,0,1,.42.56A.51.51,0,0,1,179.85,87.76Z"/><path class="cls-3" d="M173.35,92h-.07l-13.53-2a.5.5,0,0,1-.43-.57.51.51,0,0,1,.57-.42l13.54,2a.5.5,0,0,1,.42.56A.51.51,0,0,1,173.35,92Z"/><path class="cls-3" d="M205.88,91.61h-.07l-19.93-2.94a.51.51,0,0,1-.43-.57.5.5,0,0,1,.57-.42l19.93,3a.5.5,0,0,1,.43.56A.51.51,0,0,1,205.88,91.61Z"/><path class="cls-7" d="M114.54,207.81,11.88,219.38a3.59,3.59,0,0,1-4-3.17L.5,150.45a.19.19,0,0,1,.17-.21l109.39-12.33a.19.19,0,0,1,.21.17l7.41,65.79A3.55,3.55,0,0,1,114.54,207.81Z"/><path class="cls-2" d="M11.48,219.9a4.11,4.11,0,0,1-4.07-3.63L0,150.5a.69.69,0,0,1,.61-.76L110,137.42a.68.68,0,0,1,.76.6l7.41,65.79a4.07,4.07,0,0,1-3.59,4.5L11.94,219.88ZM1,150.7l7.38,65.46a3.08,3.08,0,0,0,3.42,2.72l102.65-11.56.06.49-.06-.49a3.07,3.07,0,0,0,2.71-3.4l-7.38-65.48Z"/><path class="cls-8" d="M109.73,207.81,16.9,219.38c-2,.22,28.77-39.2,28.55-41.18L.5,150.45a.19.19,0,0,1,.17-.21l109.39-12.33a.19.19,0,0,1,.21.17l-37.42,37C73.07,177.08,111.69,207.59,109.73,207.81Z"/><path class="cls-7" d="M.67,150.24,45.91,105.5A8.19,8.19,0,0,1,56,104.35l53.77,33.39a.11.11,0,0,1,0,.21L.48,150.26"/><path class="cls-2" d="M.54,150.76.45,150l-.13-.14.11-.1v0h0l45.12-44.62a8.69,8.69,0,0,1,10.72-1.22l53.77,33.4a.6.6,0,0,1,.27.65.61.61,0,0,1-.52.48Zm51.15-47.15a7.73,7.73,0,0,0-5.43,2.24L2,149.58l106.54-12L55.75,104.77A7.71,7.71,0,0,0,51.69,103.61Z"/><path class="cls-8" d="M.67,150.24,45.91,105.5A8.19,8.19,0,0,1,56,104.35l53.77,33.39a.11.11,0,0,1,0,.21L.48,150.26"/><path class="cls-7" d="M50.91,171.31l-34,47.31,92.83-10.46L66.05,169.6A10.27,10.27,0,0,0,50.91,171.31Z"/><path class="cls-2" d="M15.84,219.25,50.5,171l.41.29L50.5,171a10.77,10.77,0,0,1,15.88-1.79l44.52,39.31Zm43.41-51.72a9.74,9.74,0,0,0-7.93,4.07L18,218l90.58-10.21L65.72,170A9.83,9.83,0,0,0,59.25,167.53Z"/><path class="cls-3" d="M6.19,117.83l71.5-8.06c4.69-.53,8.86,2.34,9.32,6.41L91.6,157,71.72,175.24l-26.27,3L19.49,162,15,122.46Z"/><path class="cls-2" d="M45.33,178.72,19,162.27l-4.45-39.49-6.8-5.63,69.87-7.88a9.72,9.72,0,0,1,6.58,1.57,7.36,7.36,0,0,1,3.28,5.29l4.63,41L71.94,175.72ZM20,161.68l25.6,16,25.94-2.92,19.58-18-4.57-40.53a6.38,6.38,0,0,0-2.86-4.57,8.63,8.63,0,0,0-5.9-1.4L7.87,118.14l7.64,4Z"/><path class="cls-8" d="M50.91,167.23l-34,51.39,92.83-10.46L66.05,165.52A10.27,10.27,0,0,0,50.91,167.23Z"/><path class="cls-7" d="M50.91,171.31l-34,47.31,92.83-10.46L66.05,169.6A10.27,10.27,0,0,0,50.91,171.31Z"/><path class="cls-2" d="M15.84,219.25,50.5,171l.41.29L50.5,171a10.77,10.77,0,0,1,15.88-1.79l44.52,39.31Zm43.41-51.72a9.74,9.74,0,0,0-7.93,4.07L18,218l90.58-10.21L65.72,170A9.83,9.83,0,0,0,59.25,167.53Z"/><path class="cls-9" d="M54.2,181.78l-25,34.75,68.17-7.68L65.32,180.53A7.55,7.55,0,0,0,54.2,181.78Z"/><line class="cls-7" x1="0.71" y1="150.33" x2="45.45" y2="178.2"/><rect class="cls-2" x="22.58" y="137.91" width="1" height="52.71" transform="translate(-128.54 96.98) rotate(-58.07)"/><line class="cls-7" x1="110.26" y1="137.98" x2="72.85" y2="175.12"/><rect class="cls-2" x="65.2" y="156.05" width="52.71" height="1" transform="translate(-83.72 109.98) rotate(-44.8)"/><path class="cls-4" d="M17,140.67l-12.48,1.4-2-17.8a6,6,0,0,1,5.28-6.63l.57-.06A6,6,0,0,1,15,122.86Z"/><path class="cls-2" d="M4.1,142.63,2,124.33a6.49,6.49,0,0,1,5.73-7.18l.56-.07a6.49,6.49,0,0,1,7.18,5.73l2.06,18.3Zm5-24.59a4.44,4.44,0,0,0-.63,0l-.56.06A5.5,5.5,0,0,0,3,124.21l2,17.31,11.49-1.29-1.95-17.31A5.51,5.51,0,0,0,9.07,118Z"/><path class="cls-2" d="M25.49,131.4a.5.5,0,0,1,0-1l51.8-5.84a.5.5,0,0,1,.12,1L25.55,131.4Z"/><path class="cls-2" d="M27.48,149a.5.5,0,0,1-.06-1l51.81-5.83a.49.49,0,0,1,.55.44.5.5,0,0,1-.44.55L27.53,149Z"/><path class="cls-2" d="M26.47,140.1a.5.5,0,0,1-.49-.44.49.49,0,0,1,.44-.55l22.39-2.53a.5.5,0,0,1,.11,1L26.53,140.1Z"/><path class="cls-2" d="M54.72,136.92a.5.5,0,0,1,0-1l23.55-2.65a.5.5,0,1,1,.12,1l-23.56,2.66Z"/><path class="cls-2" d="M28.6,159a.5.5,0,0,1-.05-1l22.38-2.52a.5.5,0,1,1,.12,1L28.66,159Z"/></g></g></svg>